<?xml version="1.0" encoding="UTF-8"?>
<svg id="Layer_1" xmlns="http://www.w3.org/2000/svg" version="1.1" viewBox="0 0 566.93 566.93">
  <!-- Generator: Adobe Illustrator 29.4.0, SVG Export Plug-In . SVG Version: 2.1.0 Build 152)  -->
  <defs>
    <style>
      .st0 {
        fill: #fff;
      }

      .st1 {
        fill: #fdb515;
      }

      .st2 {
        fill: #ea3249;
      }
    </style>
  </defs>
  <rect class="st2" x="131.06" y="136.45" width="276.24" height="276.24" rx="12" ry="12"/>
  <g>
    <g>
      <path class="st0" d="M226.34,319.12c-12.54-6.6-22.39-16.02-29.55-28.28-7.17-12.25-10.75-26.67-10.75-43.26s3.63-30.73,10.89-42.98c7.26-12.25,17.15-21.68,29.69-28.28,12.54-6.6,26.72-9.9,42.56-9.9,21.66,0,0,88.83,0,88.83,0,0,63.69-64.78,72.25-50.65,7.38,12.18,10.89,26.58,10.89,42.98s-3.63,30.78-10.89,43.12c-7.26,12.35-17.2,21.82-29.83,28.42-12.63,6.6-26.86,9.9-42.7,9.9s-30.02-3.3-42.56-9.9Z"/>
      <circle class="st1" cx="302.69" cy="192.72" r="16.82"/>
    </g>
    <path class="st1" d="M321.48,382.72h-104.61c-13.74,0-24.88-11.14-24.88-24.88h0c0-13.74,11.14-24.88,24.88-24.88h104.61c13.74,0,24.88,11.14,24.88,24.88h0c0,13.74-11.14,24.88-24.88,24.88Z"/>
  </g>
</svg>